<?xml version="1.0" encoding="UTF-8" standalone="no"?>
<svg width="48px" height="72px" viewBox="0 0 48 72" version="1.1" xmlns="http://www.w3.org/2000/svg" xmlns:xlink="http://www.w3.org/1999/xlink">
    <!-- Generator: Sketch 3.8.3 (29802) - http://www.bohemiancoding.com/sketch -->
    <title>leak</title>
    <desc>Created with Sketch.</desc>
    <defs></defs>
    <g id="Page-1" stroke="none" stroke-width="1" fill="none" fill-rule="evenodd">
        <g id="leak" fill="#000000">
            <path d="M23.958,0.24 C23.118,0.267 22.306,0.747 21.914,1.507 C17.266,10.32 11.945,17.895 7.717,24.99 C3.517,32.114 0.296,38.844 0.296,46.023 C0.296,60.13 10.825,71.759 24.014,71.759 C37.176,71.759 47.704,60.13 47.704,46.023 C47.704,38.843 44.484,32.114 40.256,24.99 C36.027,17.894 30.735,10.32 26.086,1.507 C25.666,0.747 24.826,0.24 23.958,0.24 L23.958,0.24 L23.958,0.24 Z M23.986,7.308 C28.215,14.826 32.667,21.528 36.167,27.441 C40.256,34.311 42.972,40.308 42.972,46.024 C42.972,57.766 34.404,67.002 24.014,67.002 C13.625,67.002 5.029,57.767 5.029,46.024 C5.029,40.308 7.717,34.311 11.805,27.441 C15.306,21.527 19.729,14.825 23.986,7.308 L23.986,7.308 L23.986,7.308 Z M11.161,47.882 C9.761,47.995 8.669,49.571 9.06,50.923 C10.012,54.499 11.664,57.709 14.185,60.074 C16.677,62.412 20.093,63.819 24.013,63.819 C25.245,63.819 26.422,62.693 26.422,61.425 C26.422,60.158 25.245,59.032 24.013,59.032 C21.185,59.032 19.113,58.159 17.405,56.553 C15.725,54.976 14.409,52.611 13.625,49.711 C13.373,48.614 12.281,47.826 11.161,47.882 L11.161,47.882 L11.161,47.882 Z" id="Shape"></path>
        </g>
    </g>
</svg>